<svg width="105" height="106" viewBox="0 0 105 106" fill="none" xmlns="http://www.w3.org/2000/svg">
<g clip-path="url(#clip0_6741_19948)">
<path d="M103.903 64.7939C103.903 65.1827 103.826 65.5677 103.677 65.927C103.528 66.2862 103.31 66.6125 103.035 66.8873C102.759 67.1621 102.433 67.38 102.073 67.5286C101.714 67.6771 101.329 67.7533 100.94 67.7529H3.97657C3.19067 67.7537 2.43663 67.4425 1.88027 66.8876C1.32391 66.3326 1.01079 65.5795 1.00977 64.7939V41.1963C1.01079 40.4103 1.32379 39.6568 1.88004 39.1013C2.43629 38.5457 3.19032 38.2336 3.97657 38.2334H100.939C101.328 38.2334 101.713 38.31 102.073 38.459C102.432 38.6079 102.759 38.8261 103.034 39.1013C103.309 39.3764 103.528 39.703 103.677 40.0625C103.825 40.422 103.902 40.8073 103.902 41.1963L103.903 64.7939Z" fill="white"/>
<path d="M100.94 68.4409H3.97686C3.00874 68.4407 2.08023 68.0566 1.39508 67.3728C0.709933 66.689 0.324108 65.7614 0.322266 64.7935L0.322266 41.1967C0.323698 40.2284 0.709268 39.3001 1.39439 38.6156C2.07952 37.9311 3.00826 37.5462 3.97686 37.5454H100.939C101.908 37.5466 102.836 37.9316 103.521 38.6161C104.206 39.3005 104.592 40.2285 104.594 41.1967V64.7935C104.595 66.8053 102.953 68.4409 100.94 68.4409Z" fill="#A6A6A6"/>
<path d="M103.903 64.7939C103.903 65.1827 103.826 65.5677 103.677 65.927C103.528 66.2862 103.31 66.6125 103.035 66.8873C102.759 67.1621 102.433 67.38 102.073 67.5286C101.714 67.6771 101.329 67.7533 100.94 67.7529H3.97657C3.19067 67.7537 2.43663 67.4425 1.88027 66.8876C1.32391 66.3326 1.01079 65.5795 1.00977 64.7939V41.1963C1.01079 40.4103 1.32379 39.6568 1.88004 39.1013C2.43629 38.5457 3.19032 38.2336 3.97657 38.2334H100.939C101.328 38.2334 101.713 38.31 102.073 38.459C102.432 38.6079 102.759 38.8261 103.034 39.1013C103.309 39.3764 103.528 39.703 103.677 40.0625C103.825 40.422 103.902 40.8073 103.902 41.1963L103.903 64.7939Z" fill="black"/>
<path d="M23.6054 52.8305C23.583 50.3404 25.6449 49.129 25.7391 49.0726C24.5714 47.3705 22.7615 47.138 22.1255 47.1194C20.6054 46.9595 19.1309 48.0288 18.3565 48.0288C17.5667 48.0288 16.3743 47.1349 15.0891 47.1612C13.4353 47.1867 11.8882 48.1439 11.0396 49.6304C9.28844 52.6613 10.5945 57.1153 12.2722 59.5653C13.1115 60.7659 14.0922 62.1048 15.3758 62.0577C16.6316 62.0067 17.1007 61.258 18.6162 61.258C20.1178 61.258 20.5583 62.0577 21.8674 62.0275C23.2152 62.0067 24.0637 60.8223 24.8736 59.6116C25.8435 58.2372 26.233 56.882 26.2484 56.8125C26.2175 56.8017 23.6317 55.8143 23.6054 52.8305ZM21.1325 45.5078C21.8079 44.6633 22.27 43.5145 22.1417 42.3486C21.1641 42.3919 19.9416 43.0247 19.2375 43.8506C18.6147 44.5784 18.0582 45.7713 18.202 46.8931C19.3001 46.975 20.4277 46.3391 21.1325 45.5078Z" fill="white"/>
<path d="M100.939 37.5454H49.0029L69.3455 68.4409H100.939C101.908 68.4401 102.836 68.0555 103.521 67.3713C104.206 66.6871 104.592 65.7593 104.594 64.7912V41.1967C104.592 40.2284 104.207 39.3003 103.522 38.6158C102.836 37.9314 101.908 37.5464 100.939 37.5454Z" fill="url(#paint0_linear_6741_19948)"/>
<path d="M41.7948 61.8851H40.0397L39.0784 58.865H35.7368L34.821 61.8851H33.1123L36.4238 51.6034H38.4686L41.7948 61.8851ZM38.7886 57.598L37.9192 54.9132C37.8272 54.6389 37.6541 53.993 37.4006 52.9763H37.3697C37.2677 53.4136 37.1046 54.0595 36.8813 54.9132L36.0266 57.598H38.7886ZM50.2941 58.087C50.2941 59.3479 49.9517 60.3446 49.2663 61.0762C48.6526 61.7275 47.8899 62.0528 46.9803 62.0528C45.9981 62.0528 45.2917 61.7028 44.8628 61.0013V64.8913H43.2152V56.908C43.2152 56.1161 43.1943 55.3041 43.1541 54.4713H44.6031L44.6951 55.6464H44.726C45.2755 54.761 46.1093 54.3183 47.2284 54.3183C48.1032 54.3183 48.8335 54.6636 49.4177 55.3551C50.0012 56.0481 50.2941 56.9583 50.2941 58.087ZM48.6156 58.1473C48.6156 57.4257 48.4533 56.8308 48.1271 56.3618C47.7709 55.8743 47.2925 55.6302 46.6928 55.6302C46.2863 55.6302 45.9169 55.7661 45.5869 56.0342C45.2562 56.3046 45.0398 56.6577 44.9385 57.095C44.8934 57.2586 44.8677 57.4269 44.862 57.5964V58.8334C44.862 59.3719 45.0274 59.8269 45.3582 60.1993C45.6889 60.5702 46.1186 60.7564 46.6472 60.7564C47.2678 60.7564 47.7508 60.5161 48.0962 60.0394C48.4424 59.5612 48.6156 58.9307 48.6156 58.1473ZM58.8235 58.087C58.8235 59.3479 58.4812 60.3446 57.7957 61.0762C57.1813 61.7275 56.4193 62.0528 55.509 62.0528C54.5267 62.0528 53.8204 61.7028 53.3915 61.0013V64.8913H51.7439V56.908C51.7439 56.1161 51.723 55.3041 51.6828 54.4713H53.1318L53.2238 55.6464H53.2547C53.8034 54.761 54.6373 54.3183 55.757 54.3183C56.6311 54.3183 57.3614 54.6636 57.9472 55.3551C58.5299 56.0481 58.8235 56.9583 58.8235 58.087ZM57.1442 58.1473C57.1442 57.4257 56.9812 56.8308 56.655 56.3618C56.2988 55.8743 55.822 55.6302 55.2223 55.6302C54.8158 55.6302 54.4464 55.7661 54.1148 56.0342C53.7841 56.3046 53.5685 56.6577 53.4672 57.095C53.417 57.299 53.3899 57.4651 53.3899 57.5964V58.8334C53.3899 59.3719 53.5561 59.8269 53.8853 60.1993C54.2161 60.5694 54.6458 60.7564 55.1759 60.7564C55.7972 60.7564 56.2802 60.5161 56.6249 60.0394C56.9711 59.5612 57.1442 58.9307 57.1442 58.1473ZM68.36 59.001C68.36 59.8764 68.0539 60.5879 67.4457 61.1373C66.7765 61.7368 65.8422 62.0373 64.6443 62.0373C63.5376 62.0373 62.6505 61.8241 61.9812 61.3969L62.3622 60.0239C63.0848 60.452 63.8785 60.6652 64.7425 60.6652C65.3638 60.6652 65.8468 60.5246 66.1915 60.2457C66.5369 59.966 66.7116 59.5921 66.7116 59.1254C66.7116 58.7074 66.567 58.3574 66.2834 58.0724C65.9983 57.788 65.5268 57.523 64.8646 57.2797C63.0639 56.6083 62.1628 55.6263 62.1628 54.3345C62.1628 53.4908 62.4812 52.8001 63.1165 52.2601C63.7517 51.7208 64.5941 51.4512 65.642 51.4512C66.5779 51.4512 67.3576 51.6142 67.9766 51.9395L67.5632 53.2822C66.9805 52.967 66.3228 52.8094 65.5871 52.8094C65.006 52.8094 64.55 52.9523 64.2239 53.2367C63.9496 53.4908 63.8104 53.8007 63.8104 54.1684C63.8104 54.574 63.9689 54.9109 64.2842 55.1751C64.5578 55.4185 65.057 55.6835 65.7788 55.9678C66.6644 56.3247 67.3151 56.7404 67.7317 57.2179C68.1513 57.6953 68.36 58.291 68.36 59.001ZM73.8214 55.7074H72.0053V59.307C72.0053 60.2225 72.3252 60.6791 72.9666 60.6791C73.2611 60.6791 73.5053 60.6544 73.6985 60.6026L73.7441 61.8535C73.4195 61.9748 72.9921 62.0358 72.4628 62.0358C71.8121 62.0358 71.3036 61.8372 70.9365 61.4401C70.5709 61.043 70.387 60.3778 70.387 59.4414V55.7043H69.3051V54.4682H70.387V53.1107L72.0053 52.6224V54.4682H73.8214V55.7074ZM81.9992 58.1172C81.9992 59.2568 81.6731 60.1924 81.0224 60.924C80.3415 61.6773 79.4358 62.0528 78.3067 62.0528C77.2171 62.0528 76.3508 61.692 75.7047 60.9712C75.0586 60.2488 74.7356 59.3387 74.7356 58.2408C74.7356 57.0919 75.0695 56.1509 75.7348 55.4192C76.4018 54.6868 77.2998 54.3206 78.4288 54.3206C79.5169 54.3206 80.391 54.6822 81.0525 55.4038C81.6847 56.1038 81.9992 57.0077 81.9992 58.1172ZM80.2913 58.155C80.2913 57.4759 80.1445 56.8934 79.85 56.4059C79.5046 55.8171 79.01 55.5228 78.3693 55.5228C77.7094 55.5228 77.2032 55.8171 76.8585 56.4059C76.5633 56.8934 76.4164 57.486 76.4164 58.1859C76.4164 58.8658 76.5633 59.4499 76.8585 59.9359C77.2148 60.5246 77.7117 60.819 78.3554 60.819C78.9853 60.819 79.4791 60.5184 79.8361 59.9212C80.139 59.4221 80.2913 58.8357 80.2913 58.155ZM87.3571 55.9199C87.1857 55.889 87.0119 55.8737 86.8377 55.8743C86.2581 55.8743 85.8099 56.0922 85.4946 56.531C85.221 56.9173 85.0835 57.4056 85.0835 57.9951V61.8851H83.4358V56.8061C83.4373 56.0278 83.4213 55.2496 83.3879 54.472H84.823L84.8833 55.8905H84.9289C85.1036 55.403 85.3771 55.0098 85.7527 54.7154C86.0965 54.4582 86.5142 54.3189 86.9436 54.3183C87.0958 54.3183 87.2334 54.3291 87.3555 54.3484L87.3571 55.9199ZM94.7257 57.8274C94.7299 58.0778 94.7097 58.3281 94.6655 58.5745H89.7226C89.7412 59.307 89.9807 59.8679 90.4398 60.2542C90.8563 60.5988 91.395 60.7718 92.0565 60.7718C92.7883 60.7718 93.456 60.6559 94.0565 60.4218L94.3146 61.5645C93.6129 61.8705 92.7845 62.0227 91.8285 62.0227C90.6786 62.0227 89.7759 61.6843 89.119 61.009C88.4637 60.333 88.1353 59.4244 88.1353 58.2864C88.1353 57.1692 88.4405 56.2382 89.0518 55.4957C89.6917 54.703 90.5565 54.3067 91.6446 54.3067C92.7134 54.3067 93.5225 54.703 94.072 55.4957C94.507 56.1239 94.7257 56.9026 94.7257 57.8274ZM93.1546 57.4002C93.1662 56.9111 93.058 56.4901 92.8347 56.1339C92.5495 55.675 92.1106 55.4463 91.5225 55.4463C90.9838 55.4463 90.5449 55.6696 90.211 56.1177C89.9367 56.4738 89.7736 56.9019 89.7234 57.3987L93.1546 57.4002Z" fill="white"/>
<path d="M35.2609 47.9687C34.8026 47.9687 34.4062 47.9463 34.0762 47.9084V42.9375C34.5377 42.8663 35.0041 42.8311 35.4711 42.8325C37.3606 42.8325 38.2308 43.7619 38.2308 45.277C38.2308 47.0246 37.2029 47.9687 35.2609 47.9687ZM35.5375 43.4698C35.2825 43.4698 35.0654 43.4853 34.8853 43.5224V47.3012C34.9827 47.3166 35.1697 47.3236 35.4324 47.3236C36.6705 47.3236 37.3753 46.619 37.3753 45.2994C37.3753 44.1227 36.7377 43.4698 35.5375 43.4698ZM40.9425 48.0066C39.8776 48.0066 39.1875 47.2116 39.1875 46.1322C39.1875 45.0073 39.8923 44.2054 41.0028 44.2054C42.0523 44.2054 42.7579 44.9625 42.7579 46.0727C42.7579 47.2116 42.0307 48.0066 40.9425 48.0066ZM40.9735 44.7972C40.3884 44.7972 40.0136 45.3442 40.0136 46.1091C40.0136 46.8592 40.3962 47.4062 40.9657 47.4062C41.5353 47.4062 41.9178 46.8214 41.9178 46.0936C41.9178 45.3519 41.543 44.7972 40.9735 44.7972ZM48.8306 44.2803L47.6907 47.9239H46.948L46.4758 46.3416C46.3584 45.9546 46.2607 45.5618 46.1829 45.1649H46.1675C46.108 45.5621 45.9951 45.9599 45.8754 46.3416L45.373 47.9239H44.6226L43.55 44.2803H44.3823L44.795 46.0125C44.8924 46.425 44.9743 46.8144 45.0423 47.1822H45.0577C45.1172 46.8755 45.2146 46.4923 45.3576 46.0202L45.8754 44.2811H46.5353L47.0307 45.9831C47.1505 46.3957 47.2479 46.8005 47.3236 47.183H47.3452C47.3978 46.8083 47.4805 46.4104 47.5925 45.9831L48.0354 44.2811L48.8306 44.2803ZM53.0269 47.9239H52.217V45.8317C52.217 45.1873 51.9697 44.8644 51.4821 44.8644C51.0021 44.8644 50.6722 45.277 50.6722 45.7567V47.9239H49.8623V45.3218C49.8623 44.9996 49.8545 44.6542 49.8321 44.2795H50.5447L50.5825 44.842H50.6049C50.8229 44.4526 51.2649 44.2054 51.7603 44.2054C52.5253 44.2054 53.0277 44.7902 53.0277 45.7421L53.0269 47.9239ZM55.2603 47.9239H54.4496V42.6084H55.2603V47.9239ZM58.2132 48.0066C57.149 48.0066 56.4582 47.2116 56.4582 46.1322C56.4582 45.0073 57.163 44.2054 58.2727 44.2054C59.3229 44.2054 60.0277 44.9625 60.0277 46.0727C60.0285 47.2116 59.3005 48.0066 58.2132 48.0066ZM58.2433 44.7972C57.6583 44.7972 57.2835 45.3442 57.2835 46.1091C57.2835 46.8592 57.6668 47.4062 58.2348 47.4062C58.8052 47.4062 59.1869 46.8214 59.1869 46.0936C59.1877 45.3519 58.8137 44.7972 58.2433 44.7972ZM63.221 47.9239L63.1622 47.5044H63.1406C62.8933 47.842 62.5324 48.0066 62.0749 48.0066C61.4219 48.0066 60.9582 47.5492 60.9582 46.9342C60.9582 46.0349 61.738 45.5698 63.0881 45.5698V45.5026C63.0881 45.0228 62.8338 44.7825 62.3315 44.7825C61.9721 44.7825 61.6568 44.8729 61.3794 45.0529L61.2148 44.5206C61.5517 44.3104 61.9721 44.2054 62.4659 44.2054C63.418 44.2054 63.8987 44.7076 63.8987 45.7127V47.0547C63.8987 47.4225 63.915 47.7076 63.9513 47.9247L63.221 47.9239ZM63.1097 46.1091C62.2101 46.1091 61.7588 46.3269 61.7588 46.8438C61.7588 47.2262 61.9914 47.4132 62.3145 47.4132C62.7264 47.4132 63.1097 47.0988 63.1097 46.6715V46.1091ZM67.8315 47.9239L67.7937 47.339H67.7713C67.5386 47.781 67.1476 48.0066 66.6012 48.0066C65.7225 48.0066 65.0718 47.234 65.0718 46.1469C65.0718 45.0073 65.7465 44.2046 66.6677 44.2046C67.1553 44.2046 67.5008 44.3692 67.6955 44.6998H67.7118V42.6084H68.5224V46.9419C68.5224 47.2942 68.5309 47.6241 68.5526 47.9239H67.8315ZM67.7118 45.7799C67.7118 45.27 67.374 44.835 66.8586 44.835C66.2581 44.835 65.891 45.3674 65.891 46.1168C65.891 46.8515 66.272 47.3545 66.8423 47.3545C67.3516 47.3545 67.7118 46.9118 67.7118 46.3872V45.7799ZM73.6623 48.0066C72.5982 48.0066 71.9081 47.2116 71.9081 46.1322C71.9081 45.0073 72.6129 44.2054 73.7226 44.2054C74.7729 44.2054 75.4777 44.9625 75.4777 46.0727C75.4784 47.2116 74.7512 48.0066 73.6623 48.0066ZM73.6925 44.7972C73.1082 44.7972 72.7334 45.3442 72.7334 46.1091C72.7334 46.8592 73.116 47.4062 73.6848 47.4062C74.2551 47.4062 74.6369 46.8214 74.6369 46.0936C74.6384 45.3519 74.2636 44.7972 73.6925 44.7972ZM79.8332 47.9239H79.0225V45.8317C79.0225 45.1873 78.7752 44.8644 78.2876 44.8644C77.8077 44.8644 77.4785 45.277 77.4785 45.7567V47.9239H76.6678V45.3218C76.6678 44.9996 76.6601 44.6542 76.6376 44.2795H77.3502L77.388 44.842H77.4105C77.6276 44.4526 78.0704 44.2046 78.565 44.2046C79.3301 44.2046 79.8332 44.7894 79.8332 45.7413V47.9239ZM85.2822 44.8876H84.3912V46.6568C84.3912 47.1073 84.5473 47.3321 84.8626 47.3321C85.0056 47.3321 85.1254 47.3166 85.222 47.2942L85.2444 47.9092C85.0875 47.9695 84.8773 47.9996 84.6161 47.9996C83.9777 47.9996 83.596 47.6473 83.596 46.7248V44.8876H83.0643V44.2803H83.596V43.6128L84.3912 43.3725V44.2795H85.2822V44.8876ZM89.5698 47.9239H88.7606V45.8471C88.7606 45.1951 88.5141 44.8652 88.0257 44.8652C87.6061 44.8652 87.215 45.1503 87.215 45.7274V47.9239H86.4059V42.6084H87.215V44.7972H87.2313C87.4863 44.4001 87.8557 44.2046 88.3271 44.2046C89.0984 44.2046 89.5698 44.8041 89.5698 45.7567V47.9239ZM93.9624 46.2968H91.5319C91.5474 46.9867 92.0041 47.3761 92.6803 47.3761C93.0397 47.3761 93.3704 47.3159 93.6625 47.2038L93.7885 47.7663C93.4438 47.9162 93.0381 47.9911 92.5659 47.9911C91.426 47.9911 90.7514 47.271 90.7514 46.1546C90.7514 45.0375 91.4423 44.1976 92.4748 44.1976C93.406 44.1976 93.9902 44.8876 93.9902 45.9298C93.9955 46.0528 93.9861 46.176 93.9624 46.2968ZM93.2197 45.7197C93.2197 45.1572 92.9361 44.7601 92.4183 44.7601C91.9531 44.7601 91.5852 45.1649 91.5327 45.7197H93.2197Z" fill="white"/>
</g>
<defs>
<linearGradient id="paint0_linear_6741_19948" x1="76.7976" y1="68.523" x2="76.7976" y2="-42.9012" gradientUnits="userSpaceOnUse">
<stop stop-color="#1A1A1A" stop-opacity="0.1"/>
<stop offset="0.123" stop-color="#212121" stop-opacity="0.151"/>
<stop offset="0.308" stop-color="#353535" stop-opacity="0.227"/>
<stop offset="0.532" stop-color="#575757" stop-opacity="0.318"/>
<stop offset="0.783" stop-color="#858585" stop-opacity="0.421"/>
<stop offset="1" stop-color="#B3B3B3" stop-opacity="0.51"/>
</linearGradient>
<clipPath id="clip0_6741_19948">
<rect width="104.245" height="104.245" fill="white" transform="translate(0.322266 0.870605)"/>
</clipPath>
</defs>
</svg>
