<svg width="105" height="106" viewBox="0 0 105 106" fill="none" xmlns="http://www.w3.org/2000/svg">
<g clip-path="url(#clip0_6741_19927)">
<path d="M104.261 65.4339C104.261 67.9787 102.198 70.0425 99.6541 70.0425H4.62474C2.08017 70.0427 0.0166016 67.9789 0.0166016 65.4339V40.551C0.0166016 38.0064 2.08017 35.9429 4.62474 35.9429H99.6539C102.198 35.9429 104.261 38.0064 104.261 40.551V65.4339H104.261Z" fill="black"/>
<mask id="mask0_6741_19927" style="mask-type:luminance" maskUnits="userSpaceOnUse" x="7" y="42" width="21" height="24">
<path d="M22.6081 50.9525L17.9076 48.2388C17.9076 48.2388 9.34435 43.2942 8.84092 43.0035C8.33751 42.7129 7.83594 42.889 7.83594 43.4963V64.8252C7.83594 65.2806 8.19442 65.4768 8.6318 65.2245C9.06897 64.9718 17.9076 59.8686 17.9076 59.8686L22.6079 57.155C22.6079 57.155 26.596 54.8526 27.1261 54.5467C27.6562 54.2404 27.6053 53.8205 27.1579 53.5796C26.7108 53.3385 22.6081 50.9525 22.6081 50.9525Z" fill="white"/>
</mask>
<g mask="url(#mask0_6741_19927)">
<path d="M7.83594 42.5083V65.6006L19.4804 54.0545L7.83594 42.5083Z" fill="url(#paint0_linear_6741_19927)"/>
</g>
<mask id="mask1_6741_19927" style="mask-type:luminance" maskUnits="userSpaceOnUse" x="7" y="42" width="21" height="24">
<path d="M22.6081 50.9525L17.9076 48.2388C17.9076 48.2388 9.34435 43.2942 8.84092 43.0035C8.33751 42.7129 7.83594 42.889 7.83594 43.4963V64.8252C7.83594 65.2806 8.19442 65.4768 8.6318 65.2245C9.06897 64.9718 17.9076 59.8686 17.9076 59.8686L22.6079 57.155C22.6079 57.155 26.596 54.8526 27.1261 54.5467C27.6562 54.2404 27.6053 53.8205 27.1579 53.5796C26.7108 53.3385 22.6081 50.9525 22.6081 50.9525Z" fill="white"/>
</mask>
<g mask="url(#mask1_6741_19927)">
<path d="M22.6079 50.9531L17.9074 48.2394L7.83594 42.4243V42.5083L19.4804 54.0545L22.6079 50.9531Z" fill="url(#paint1_linear_6741_19927)"/>
</g>
<mask id="mask2_6741_19927" style="mask-type:luminance" maskUnits="userSpaceOnUse" x="7" y="42" width="21" height="24">
<path d="M22.6081 50.9525L17.9076 48.2388C17.9076 48.2388 9.34435 43.2942 8.84092 43.0035C8.33751 42.7129 7.83594 42.889 7.83594 43.4963V64.8252C7.83594 65.2806 8.19442 65.4768 8.6318 65.2245C9.06897 64.9718 17.9076 59.8686 17.9076 59.8686L22.6079 57.155C22.6079 57.155 26.596 54.8526 27.1261 54.5467C27.6562 54.2404 27.6053 53.8205 27.1579 53.5796C26.7108 53.3385 22.6081 50.9525 22.6081 50.9525Z" fill="white"/>
</mask>
<g mask="url(#mask2_6741_19927)">
<path d="M7.83594 65.6007V65.6847L17.9074 59.8694L22.6077 57.1557L19.4804 54.0547L7.83594 65.6007Z" fill="url(#paint2_linear_6741_19927)"/>
</g>
<mask id="mask3_6741_19927" style="mask-type:luminance" maskUnits="userSpaceOnUse" x="7" y="42" width="21" height="24">
<path d="M22.6081 50.9525L17.9076 48.2388C17.9076 48.2388 9.34435 43.2942 8.84092 43.0035C8.33751 42.7129 7.83594 42.889 7.83594 43.4963V64.8252C7.83594 65.2806 8.19442 65.4768 8.6318 65.2245C9.06897 64.9718 17.9076 59.8686 17.9076 59.8686L22.6079 57.155C22.6079 57.155 26.596 54.8526 27.1261 54.5467C27.6562 54.2404 27.6053 53.8205 27.1579 53.5796C26.7108 53.3385 22.6081 50.9525 22.6081 50.9525Z" fill="white"/>
</mask>
<g mask="url(#mask3_6741_19927)">
<path d="M22.6079 50.9526L19.4805 54.054L22.6077 57.155L27.9795 54.0538L22.6079 50.9526Z" fill="url(#paint3_linear_6741_19927)"/>
</g>
<path d="M81.1444 58.5685C80.707 58.5685 80.3079 58.4878 79.9466 58.3266C79.5852 58.1652 79.2815 57.9169 79.0363 57.5823H78.963C79.0119 57.9744 79.0363 58.3462 79.0363 58.6973V61.4608H78.0197V51.7303H78.8468L78.9874 52.6494H79.0363C79.298 52.2816 79.6025 52.0164 79.9496 51.853C80.2967 51.6895 80.6951 51.6078 81.1441 51.6078C82.0348 51.6078 82.7222 51.9123 83.2061 52.5208C83.6901 53.1294 83.9322 53.9834 83.9322 55.0819C83.9322 56.1849 83.686 57.0415 83.1943 57.6528C82.7021 58.2634 82.0189 58.5685 81.1444 58.5685ZM80.9972 52.4717C80.311 52.4717 79.8147 52.6619 79.5084 53.0416C79.202 53.4215 79.0447 54.0262 79.0363 54.8555V55.0819C79.0363 56.0258 79.1937 56.7008 79.5084 57.1074C79.8231 57.514 80.3277 57.7168 81.0217 57.7168C81.6021 57.7168 82.0566 57.4822 82.3856 57.0124C82.7141 56.5428 82.8786 55.8953 82.8786 55.0697C82.8786 54.2327 82.7141 53.5898 82.3856 53.1427C82.0568 52.6951 81.5938 52.4717 80.9972 52.4717ZM86.2875 58.4458H85.2705V48.9116H86.2875V58.4458ZM92.1354 58.4458L91.933 57.4899H91.8841C91.549 57.911 91.2152 58.1961 90.8822 58.3447C90.5494 58.4941 90.1336 58.5685 89.6355 58.5685C88.9696 58.5685 88.4479 58.3969 88.0698 58.0539C87.6917 57.7109 87.503 57.2229 87.503 56.5895C87.503 55.2336 88.5877 54.5227 90.7566 54.457L91.8967 54.4201V54.0036C91.8967 53.4765 91.7832 53.0872 91.5564 52.8363C91.3299 52.5848 90.9667 52.4593 90.4688 52.4593C89.909 52.4593 89.2757 52.6309 88.5693 52.9739L88.2567 52.1958C88.5879 52.016 88.9501 51.8752 89.3446 51.7731C89.7388 51.671 90.1338 51.6198 90.5302 51.6198C91.3308 51.6198 91.924 51.7973 92.3103 52.1528C92.6961 52.5082 92.8891 53.0781 92.8891 53.8625V58.4456H92.1354L92.1354 58.4458ZM89.8376 57.7292C90.4705 57.7292 90.9678 57.5555 91.3295 57.2085C91.6907 56.8614 91.8719 56.3751 91.8719 55.7498V55.1433L90.8543 55.1859C90.0456 55.215 89.4628 55.3401 89.105 55.5633C88.7477 55.7859 88.5689 56.1321 88.5689 56.6019C88.5689 56.9694 88.68 57.2494 88.903 57.441C89.1257 57.6332 89.437 57.7292 89.8376 57.7292ZM93.4795 51.7303H94.5699L96.0406 55.56C96.3632 56.4344 96.5636 57.0654 96.6414 57.4536H96.6904C96.7435 57.2449 96.855 56.8889 97.0242 56.3839C97.1938 55.8792 97.7485 54.3284 98.6877 51.7303H99.7789L96.8925 59.3774C96.6068 60.1331 96.2728 60.6693 95.8904 60.9865C95.5086 61.3028 95.0397 61.4608 94.4847 61.4608C94.1741 61.4608 93.8678 61.4261 93.5651 61.3568V60.542C93.7897 60.5909 94.0412 60.6155 94.319 60.6155C95.0177 60.6155 95.5156 60.2234 95.8142 59.439L96.1878 58.4833L93.4795 51.7303ZM62.3023 52.3543C62.6252 52.6215 63.2994 53.1828 63.2994 54.251C63.2994 55.2898 62.7094 55.7824 62.1193 56.2453C61.9367 56.4277 61.726 56.6249 61.726 56.9343C61.726 57.2427 61.9365 57.4115 62.0916 57.538L62.5975 57.9305C63.2154 58.4505 63.7767 58.9284 63.7767 59.8979C63.7767 61.2182 62.4984 62.5521 60.0829 62.5521C58.0458 62.5521 57.063 61.5832 57.063 60.5432C57.063 60.0377 57.3147 59.3218 58.1446 58.8296C59.0149 58.2958 60.1956 58.2263 60.8274 58.1831C60.6301 57.9306 60.4059 57.6636 60.4059 57.2288C60.4059 56.9904 60.4764 56.8498 60.5464 56.6804C60.3912 56.6947 60.237 56.7087 60.0963 56.7087C58.6079 56.7087 57.7652 55.599 57.7652 54.5039C57.7652 53.8576 58.0605 53.1408 58.6638 52.6217C59.4647 51.9616 60.4198 51.8489 61.179 51.8489H64.0719L63.1728 52.3545H62.3023L62.3023 52.3543ZM61.3047 58.5913C61.1924 58.5766 61.1219 58.5766 60.9821 58.5766C60.8557 58.5766 60.0961 58.6054 59.5069 58.8025C59.1979 58.9139 58.2987 59.251 58.2987 60.2489C58.2987 61.2457 59.2684 61.9632 60.7715 61.9632C62.1191 61.9632 62.8363 61.3157 62.8363 60.4456C62.8363 59.7278 62.3727 59.3501 61.3047 58.5913ZM61.7123 55.922C62.0349 55.5986 62.0627 55.1496 62.0627 54.8964C62.0627 53.8853 61.459 52.3121 60.2934 52.3121C59.9277 52.3121 59.5348 52.4946 59.31 52.7758C59.0715 53.0707 59.0006 53.4496 59.0006 53.8152C59.0006 54.7562 59.5485 56.3156 60.757 56.3156C61.1082 56.3156 61.4867 56.147 61.7123 55.922ZM53.4592 58.3665C51.2298 58.3665 50.0377 56.6274 50.0377 55.0564C50.0377 53.2191 51.538 51.6492 53.6704 51.6492C55.7309 51.6492 57.0213 53.2613 57.0213 54.9586C57.0214 56.6127 55.7458 58.3665 53.4592 58.3665ZM55.212 57.2307C55.5491 56.7815 55.6333 56.2208 55.6333 55.6734C55.6333 54.4389 55.0443 52.0833 53.3052 52.0833C52.8425 52.0833 52.3799 52.2659 52.0434 52.561C51.4964 53.0512 51.3977 53.6685 51.3977 54.2722C51.3977 55.6595 52.085 57.9448 53.7823 57.9448C54.3291 57.9448 54.8902 57.6789 55.212 57.2307ZM45.8582 58.3665C43.6283 58.3665 42.436 56.6274 42.436 55.0564C42.436 53.2191 43.9368 51.6492 46.0687 51.6492C48.1298 51.6492 49.4199 53.2613 49.4199 54.9586C49.4201 56.6127 48.1443 58.3665 45.8582 58.3665ZM47.6113 57.2307C47.9478 56.7815 48.0322 56.2208 48.0322 55.6734C48.0322 54.4389 47.4428 52.0833 45.7037 52.0833C45.2412 52.0833 44.7782 52.2659 44.4419 52.561C43.8949 53.0512 43.7968 53.6685 43.7968 54.2722C43.7968 55.6595 44.4837 57.9448 46.1812 57.9448C46.7282 57.9448 47.2889 57.6789 47.6113 57.2307ZM41.3648 58.1466L39.3483 58.6119C38.5302 58.7391 37.7973 58.851 37.0222 58.851C33.1303 58.851 31.6504 55.9887 31.6504 53.7468C31.6504 51.0119 33.7509 48.4746 37.3467 48.4746C38.1083 48.4746 38.8408 48.5871 39.5034 48.7705C40.5607 49.0667 41.0542 49.4329 41.3646 49.6447L40.1939 50.7585L39.7007 50.8708L40.0531 50.3067C39.5739 49.8418 38.6989 48.9819 37.0359 48.9819C34.808 48.9819 33.1299 50.6745 33.1299 53.1416C33.1299 55.7916 35.0477 58.2872 38.1207 58.2872C39.024 58.2872 39.4883 58.1042 39.9116 57.9346V55.6652L37.783 55.7779L38.9105 55.171H41.8998L41.5335 55.5234C41.4341 55.6084 41.4204 55.6369 41.3923 55.7486C41.3776 55.8758 41.3644 56.285 41.3644 56.4259V58.1466H41.3648V58.1466Z" fill="#F9F9F9"/>
<path d="M66.7575 57.74C66.292 57.6976 66.1945 57.6135 66.1945 57.063V49.083C66.1974 49.0526 66.1992 49.0215 66.202 48.9921C66.2589 48.4989 66.3998 48.4143 66.8373 48.1602H64.8205L63.7627 48.6678H64.8406V48.6742L64.8398 48.6691V57.3736C64.8398 57.655 64.7842 57.6978 64.4595 58.1203H66.9554L67.4771 57.811C67.2376 57.7818 66.9975 57.7682 66.7575 57.74ZM72.4947 57.8697C72.3412 57.9538 72.1872 58.0523 72.0337 58.1218C71.5708 58.3317 71.0949 58.3879 70.6741 58.3879C70.2271 58.3879 69.5264 58.359 68.8116 57.8415C67.8183 57.1408 67.3842 55.9367 67.3842 54.8869C67.3842 52.7169 69.1483 51.6528 70.5905 51.6528C71.0947 51.6528 71.6134 51.7786 72.0335 52.0452C72.733 52.5064 72.9149 53.1085 73.0124 53.4307L69.7227 54.7614L68.6443 54.8453C68.9939 56.6236 70.198 57.6589 71.5286 57.6589C72.2426 57.6589 72.7609 57.4074 73.2368 57.1698L72.4947 57.8697ZM71.1789 53.6964C71.4445 53.5988 71.5845 53.5144 71.5845 53.3186C71.5845 52.7589 70.9547 52.1145 70.198 52.1145C69.6373 52.1145 68.5879 52.5488 68.5879 54.0607C68.5879 54.2987 68.616 54.5506 68.6305 54.8035L71.1789 53.6964ZM73.8461 51.7486V52.6725H73.7339V51.7486H73.4282V51.6528H74.1517V51.7486H73.8461ZM75.1057 52.6725V51.7401H75.1006L74.8161 52.6725H74.7283L74.4413 51.7401H74.4376V52.6725H74.3357V51.6528H74.5104L74.77 52.4771H74.7737L75.0295 51.6528H75.2066V52.6725H75.1057Z" fill="#F9F9F9"/>
<path d="M34.4511 45.7291H33.7504C33.7504 45.6327 33.684 45.3598 33.5511 44.9102H32.5396C32.4024 45.3525 32.3337 45.6254 32.3337 45.7291H31.6748C31.6748 45.6722 31.8452 45.2051 32.186 44.3279C32.5267 43.4507 32.6971 42.9675 32.6971 42.8786H33.5248C33.5248 42.9618 33.6791 43.4379 33.9878 44.3071C34.2966 45.1764 34.4511 45.6502 34.4511 45.7291ZM33.4396 44.492C33.1899 43.7389 33.0652 43.3317 33.0652 43.2703H33.0301C33.0301 43.3272 32.9009 43.7344 32.6427 44.492H33.4396ZM37.2743 45.7291H36.7336C36.7336 45.6692 36.5328 45.3533 36.1315 44.7812C35.7113 44.1783 35.4718 43.7662 35.4135 43.5443H35.3785C35.4149 43.8638 35.4333 44.1529 35.4333 44.4113C35.4333 44.7718 35.4435 45.2113 35.4639 45.7293H34.9252C34.947 45.2769 34.958 44.78 34.958 44.2385C34.958 43.7057 34.947 43.2524 34.9252 42.8789H35.5753C35.5753 42.9563 35.7555 43.2651 36.116 43.805C36.4998 44.3785 36.7203 44.7676 36.7772 44.972H36.81C36.775 44.6465 36.7574 44.3546 36.7574 44.0962C36.7574 43.7008 36.7472 43.2948 36.7269 42.8789H37.2743C37.2537 43.2408 37.2437 43.6941 37.2437 44.2385C37.2435 44.7869 37.2537 45.2838 37.2743 45.7291ZM40.4474 44.2052C40.4474 44.6198 40.3145 44.9818 40.0489 45.2911C39.7832 45.6007 39.411 45.7552 38.9323 45.7552C38.7162 45.7552 38.4185 45.7464 38.039 45.7289C38.0579 45.2881 38.0675 44.791 38.0675 44.2381C38.0675 43.7069 38.0579 43.2537 38.039 42.8784H38.4221C38.4849 42.8784 38.5782 42.8762 38.7024 42.8719C38.8263 42.8676 38.9074 42.8654 38.9453 42.8654C39.4722 42.8654 39.8541 42.9968 40.0915 43.2596C40.3288 43.5223 40.4474 43.8374 40.4474 44.2052ZM39.8498 44.2994C39.8498 44.0191 39.7681 43.7831 39.6046 43.5909C39.4412 43.3991 39.1915 43.3032 38.8558 43.3032C38.7931 43.3032 38.707 43.3097 38.5974 43.3229C38.6119 43.615 38.6192 43.9199 38.6192 44.238C38.6192 44.587 38.6265 44.9328 38.641 45.2758C38.7347 45.2947 38.83 45.3043 38.9255 45.3044C39.2394 45.3044 39.4717 45.2068 39.6228 45.0119C39.7738 44.8171 39.8498 44.5796 39.8498 44.2994ZM43.3735 45.7291H42.7254C42.556 45.2125 42.4262 44.8935 42.3357 44.7724C42.2452 44.6512 42.0993 44.5906 41.8979 44.5906C41.8131 44.5906 41.7322 44.5914 41.655 44.5929C41.655 44.9681 41.6615 45.3468 41.6747 45.7291H41.0662C41.0851 45.2883 41.0947 44.7912 41.0947 44.2382C41.0947 43.7071 41.0851 43.2538 41.0662 42.8786H41.4448C41.4886 42.8786 41.5802 42.8764 41.7196 42.8721C41.859 42.8678 41.9878 42.8656 42.106 42.8656C42.7759 42.8656 43.111 43.0947 43.111 43.553C43.111 43.9164 42.9198 44.1696 42.5375 44.3128V44.3457C42.6848 44.3864 42.814 44.5016 42.9249 44.6903C43.0356 44.8792 43.1852 45.2255 43.3735 45.7291ZM42.5525 43.7148C42.5525 43.4244 42.3656 43.2791 41.9921 43.2791C41.8549 43.2791 41.7336 43.2893 41.6287 43.3097C41.6448 43.5359 41.6527 43.8308 41.6527 44.1942C41.733 44.1973 41.8009 44.1985 41.8563 44.1985C42.3204 44.1987 42.5525 44.0375 42.5525 43.7148ZM46.5117 44.2513C46.5117 44.6993 46.3746 45.0708 46.1 45.3657C45.8255 45.6604 45.4862 45.808 45.082 45.808C44.6966 45.808 44.374 45.6726 44.1143 45.4018C43.8545 45.1311 43.7246 44.7869 43.7246 44.3697C43.7246 43.9217 43.8618 43.5502 44.1363 43.2553C44.4107 42.9605 44.75 42.813 45.1544 42.813C45.5398 42.813 45.8622 42.9479 46.1221 43.218C46.3819 43.488 46.5117 43.8323 46.5117 44.2513ZM45.9077 44.3147C45.9077 44.0096 45.8296 43.7621 45.6735 43.5724C45.5172 43.3827 45.3246 43.2879 45.0955 43.2879C44.8823 43.2879 44.7013 43.3835 44.5525 43.5746C44.4037 43.7658 44.3289 44.0073 44.3289 44.2994C44.3289 44.6029 44.4074 44.8499 44.5643 45.0405C44.7213 45.231 44.9135 45.3262 45.1413 45.3262C45.3543 45.3262 45.5355 45.2302 45.6843 45.0382C45.8331 44.8464 45.9077 44.6051 45.9077 44.3147ZM47.7497 45.7291H47.1301C47.1491 45.2767 47.1586 44.7798 47.1586 44.2382C47.1586 43.7055 47.1491 43.2522 47.1301 42.8786H47.7497C47.7307 43.2465 47.7211 43.6996 47.7211 44.2382C47.7211 44.7883 47.7307 45.2854 47.7497 45.7291ZM50.923 44.2052C50.923 44.6198 50.7901 44.9818 50.5246 45.2911C50.2588 45.6007 49.8866 45.7552 49.4079 45.7552C49.1918 45.7552 48.8941 45.7464 48.5146 45.7289C48.5335 45.2881 48.5431 44.791 48.5431 44.2381C48.5431 43.7069 48.5336 43.2537 48.5146 42.8784H48.8977C48.9605 42.8784 49.0539 42.8762 49.178 42.8719C49.3019 42.8676 49.383 42.8654 49.4209 42.8654C49.9478 42.8654 50.3297 42.9968 50.5672 43.2596C50.8044 43.5223 50.923 43.8374 50.923 44.2052ZM50.3254 44.2994C50.3254 44.0191 50.2437 43.7831 50.0802 43.5909C49.9168 43.3991 49.6671 43.3032 49.3314 43.3032C49.2687 43.3032 49.1827 43.3097 49.073 43.3229C49.0875 43.615 49.0948 43.9199 49.0948 44.238C49.0948 44.587 49.1021 44.9328 49.1166 45.2758C49.2103 45.2947 49.3056 45.3043 49.4011 45.3044C49.715 45.3044 49.9473 45.2068 50.0984 45.0119C50.2494 44.8171 50.3254 44.5796 50.3254 44.2994ZM55.1329 45.7291H54.4322C54.4322 45.6327 54.3658 45.3598 54.2327 44.9102H53.2212C53.084 45.3525 53.0153 45.6254 53.0153 45.7291H52.3566C52.3566 45.6722 52.527 45.2051 52.8678 44.3279C53.2085 43.4507 53.3789 42.9675 53.3789 42.8786H54.2066C54.2066 42.9618 54.3611 43.4379 54.6696 44.3071C54.9782 45.1764 55.1329 45.6502 55.1329 45.7291ZM54.1214 44.492C53.8717 43.7389 53.7468 43.3317 53.7468 43.2703H53.7117C53.7117 43.3272 53.5827 43.7344 53.3245 44.492H54.1214ZM57.6866 43.625C57.6866 43.9739 57.557 44.2315 57.298 44.3978C57.0389 44.5641 56.7212 44.6475 56.3445 44.6475C56.2758 44.6475 56.2271 44.6461 56.1978 44.6432C56.1978 44.9177 56.2057 45.2795 56.2218 45.7291H55.6065C55.6255 45.3074 55.635 44.8103 55.635 44.2382C55.635 43.7128 55.6255 43.2596 55.6065 42.8786H55.9874C56.0414 42.8786 56.145 42.8764 56.2982 42.8721C56.4515 42.8678 56.5842 42.8656 56.6967 42.8656C56.9739 42.8656 57.2083 42.9283 57.3994 43.0539C57.5906 43.1795 57.6866 43.3696 57.6866 43.625ZM57.1219 43.7454C57.1219 43.4332 56.9146 43.2769 56.5001 43.2769C56.3963 43.2769 56.2869 43.2879 56.1717 43.3097C56.1878 43.5856 56.1958 43.8979 56.1958 44.2468C56.2322 44.2499 56.2746 44.2511 56.3227 44.2511C56.8555 44.2513 57.1219 44.0827 57.1219 43.7454ZM60.3125 43.625C60.3125 43.9739 60.1829 44.2315 59.9241 44.3978C59.665 44.5641 59.3471 44.6475 58.9704 44.6475C58.9017 44.6475 58.853 44.6461 58.8237 44.6432C58.8237 44.9177 58.8316 45.2795 58.8477 45.7291H58.2324C58.2514 45.3074 58.261 44.8103 58.261 44.2382C58.261 43.7128 58.2514 43.2596 58.2324 42.8786H58.6134C58.6674 42.8786 58.7709 42.8764 58.9242 42.8721C59.0774 42.8678 59.2101 42.8656 59.3226 42.8656C59.5998 42.8656 59.8342 42.9283 60.0253 43.0539C60.2165 43.1795 60.3125 43.3696 60.3125 43.625ZM59.7478 43.7454C59.7478 43.4332 59.5405 43.2769 59.126 43.2769C59.0222 43.2769 58.9127 43.2879 58.7976 43.3097C58.8137 43.5856 58.8217 43.8979 58.8217 44.2468C58.8581 44.2499 58.9005 44.2511 58.9486 44.2511C59.4814 44.2513 59.7478 44.0827 59.7478 43.7454ZM64.6058 44.2513C64.6058 44.6993 64.4686 45.0708 64.1941 45.3657C63.9196 45.6606 63.5802 45.808 63.176 45.808C62.7907 45.808 62.468 45.6726 62.2084 45.4018C61.9487 45.1311 61.8187 44.7869 61.8187 44.3697C61.8187 43.9217 61.9558 43.5502 62.2304 43.2553C62.5049 42.9603 62.8443 42.813 63.2484 42.813C63.6338 42.813 63.9564 42.9479 64.2161 43.218C64.4757 43.488 64.6058 43.8323 64.6058 44.2513ZM64.0015 44.3147C64.0015 44.0096 63.9234 43.7621 63.7673 43.5724C63.6112 43.3827 63.4184 43.2879 63.1893 43.2879C62.9761 43.2879 62.7951 43.3835 62.6463 43.5746C62.4976 43.7658 62.423 44.0073 62.423 44.2994C62.423 44.6029 62.5014 44.8499 62.6584 45.0405C62.8153 45.231 63.0075 45.3262 63.2351 45.3262C63.4483 45.3262 63.6293 45.2302 63.7781 45.0382C63.9271 44.8464 64.0015 44.6051 64.0015 44.3147ZM67.5732 45.7291H67.0325C67.0325 45.6692 66.832 45.3533 66.4305 44.7812C66.0102 44.1783 65.7707 43.7662 65.7125 43.5443H65.6774C65.7139 43.8638 65.7322 44.1529 65.7322 44.4113C65.7322 44.7718 65.7424 45.2113 65.7628 45.7293H65.2241C65.2459 45.2769 65.257 44.78 65.257 44.2385C65.257 43.7057 65.246 43.2524 65.2241 42.8789H65.8743C65.8743 42.9563 66.0547 43.2651 66.415 43.805C66.799 44.3785 67.0193 44.7676 67.0762 44.972H67.109C67.0739 44.6465 67.0564 44.3546 67.0564 44.0962C67.0564 43.7008 67.0462 43.2948 67.0258 42.8789H67.5733C67.5527 43.2408 67.5427 43.6941 67.5427 44.2385C67.5427 44.7869 67.5529 45.2838 67.5732 45.7291Z" fill="#F9F9FA"/>
</g>
<defs>
<linearGradient id="paint0_linear_6741_19927" x1="13.6582" y1="42.5083" x2="13.6582" y2="65.6006" gradientUnits="userSpaceOnUse">
<stop stop-color="#257CB0"/>
<stop offset="0.286" stop-color="#4A93B5"/>
<stop offset="0.767" stop-color="#78BCBB"/>
<stop offset="1" stop-color="#89CFBD"/>
</linearGradient>
<linearGradient id="paint1_linear_6741_19927" x1="7.83612" y1="48.2392" x2="22.6081" y2="48.2392" gradientUnits="userSpaceOnUse">
<stop stop-color="#52C1AD"/>
<stop offset="1" stop-color="#DEE89A"/>
</linearGradient>
<linearGradient id="paint2_linear_6741_19927" x1="15.2218" y1="54.0547" x2="15.2218" y2="65.6847" gradientUnits="userSpaceOnUse">
<stop stop-color="#EC413D"/>
<stop offset="0.167" stop-color="#DA4452"/>
<stop offset="0.575" stop-color="#B0487A"/>
<stop offset="0.862" stop-color="#954A92"/>
<stop offset="1" stop-color="#8A4A9D"/>
</linearGradient>
<linearGradient id="paint3_linear_6741_19927" x1="23.7301" y1="50.9527" x2="23.7301" y2="57.1548" gradientUnits="userSpaceOnUse">
<stop stop-color="#F58879"/>
<stop offset="0.119" stop-color="#F69079"/>
<stop offset="0.713" stop-color="#FCB877"/>
<stop offset="1" stop-color="#FEC874"/>
</linearGradient>
<clipPath id="clip0_6741_19927">
<rect width="104.245" height="104.245" fill="white" transform="translate(0.0166016 0.870605)"/>
</clipPath>
</defs>
</svg>
